<?xml version="1.0" encoding="UTF-8"?>
<svg width="18px" height="17.9999999px" viewBox="0 0 18 17.9999999" version="1.1" xmlns="http://www.w3.org/2000/svg" xmlns:xlink="http://www.w3.org/1999/xlink">
    <title>headphones icon</title>
    <g id="headphones-icon" stroke="none" stroke-width="1" fill="none" fill-rule="evenodd" stroke-linecap="round" stroke-linejoin="round">
        <path d="M0,15 L0,9 C0,4.02943717 4.0294373,0 9,0 C13.9705627,0 18,4.02943717 18,9 L18,15" id="Path" stroke="#FFFFFF"></path>
        <path d="M18,15.9999999 C18,17.1045694 17.1045695,17.9999999 16,17.9999999 L15,17.9999999 C13.8954305,17.9999999 13,17.1045694 13,15.9999999 L13,12.9999999 C13,11.8954304 13.8954305,10.9999999 15,10.9999999 L18,10.9999999 L18,15.9999999 Z M0,15.9999999 C0,17.1045694 0.8954305,17.9999999 2,17.9999999 L3,17.9999999 C4.1045695,17.9999999 5,17.1045694 5,15.9999999 L5,12.9999999 C5,11.8954304 4.1045695,10.9999999 3,10.9999999 L0,10.9999999 L0,15.9999999 Z" id="Shape" stroke="#FFFFFF"></path>
    </g>
</svg>